<?xml version="1.0" encoding="UTF-8" ?>
<!DOCTYPE svg PUBLIC "-//W3C//DTD SVG 1.1//EN" "http://www.w3.org/Graphics/SVG/1.1/DTD/svg11.dtd">
<svg width="587pt" height="552pt" viewBox="0 0 587 552" version="1.1" xmlns="http://www.w3.org/2000/svg">
<g id="#4f575cff">
<path fill="#4f575c" opacity="1.00" d=" M 197.97 40.00 C 206.96 30.66 220.03 25.36 232.99 25.89 C 270.66 25.97 308.32 25.73 345.99 25.79 C 354.35 25.91 362.96 25.10 371.01 27.91 C 389.60 33.53 403.42 51.61 403.98 71.02 C 403.97 87.24 403.98 103.46 403.97 119.68 C 397.17 119.67 390.36 119.86 383.56 119.55 C 379.68 119.37 375.79 119.43 371.92 119.43 C 371.89 103.93 371.97 88.44 371.88 72.95 C 371.95 65.02 365.04 57.72 357.01 57.96 C 314.99 58.05 272.97 57.72 230.96 57.91 C 222.96 57.72 216.31 65.10 216.35 72.92 C 216.22 88.50 216.35 104.08 216.29 119.66 C 212.60 119.66 208.92 119.65 205.23 119.63 C 198.33 119.62 191.43 119.60 184.53 119.64 C 184.44 104.08 184.49 88.52 184.51 72.96 C 184.38 60.76 189.33 48.61 197.97 40.00 Z" />
<path fill="#4f575c" opacity="1.00" d=" M 121.96 276.46 C 153.40 276.49 184.84 276.49 216.28 276.46 C 216.30 297.31 216.30 318.16 216.27 339.01 C 208.32 339.03 200.36 339.07 192.40 338.97 C 181.80 338.92 171.19 338.92 160.58 338.97 C 147.71 339.07 134.84 339.04 121.97 338.99 C 121.94 318.15 121.96 297.31 121.96 276.46 Z" />
<path fill="#4f575c" opacity="1.00" d=" M 371.96 276.68 C 403.40 276.68 434.84 276.68 466.28 276.68 C 466.29 297.46 466.30 318.23 466.27 339.00 C 453.51 339.06 440.74 339.01 427.98 339.03 C 417.29 339.03 406.60 339.03 395.92 339.03 C 387.94 339.00 379.95 339.07 371.97 338.99 C 371.94 318.22 371.96 297.45 371.96 276.68 Z" />
</g>
<g id="#cd0000ff">
<path fill="#cd0000" opacity="1.00" d=" M 293.80 119.54 C 319.84 119.26 345.88 119.50 371.92 119.43 C 375.79 119.43 379.68 119.37 383.56 119.55 C 388.44 140.42 393.79 161.19 398.96 181.99 C 363.99 181.92 329.02 182.08 294.05 181.90 C 293.62 161.12 294.11 140.33 293.80 119.54 Z" />
<path fill="#cd0000" opacity="1.00" d=" M 415.74 119.44 C 443.07 119.39 470.41 119.44 497.75 119.42 C 502.69 140.32 508.10 161.11 513.14 181.99 C 485.89 181.94 458.65 182.03 431.40 181.94 C 426.22 161.10 421.32 140.17 415.74 119.44 Z" />
<path fill="#cd0000" opacity="1.00" d=" M 293.96 276.53 C 319.95 276.85 345.96 276.53 371.96 276.68 C 371.96 297.45 371.94 318.22 371.97 338.99 C 379.95 339.07 387.94 339.00 395.92 339.03 C 393.11 394.02 390.73 449.02 387.96 504.01 C 388.11 511.58 386.75 519.11 387.14 526.68 C 356.04 526.65 324.93 526.88 293.84 526.57 C 294.01 443.22 293.76 359.87 293.96 276.53 Z" />
<path fill="#cd0000" opacity="1.00" d=" M 466.28 276.68 C 489.73 276.66 513.18 276.61 536.63 276.69 C 528.43 360.04 519.90 443.36 511.89 526.72 C 480.86 526.69 449.82 526.72 418.79 526.70 C 421.51 472.78 423.98 418.84 426.59 364.92 C 427.27 356.30 427.02 347.63 427.98 339.03 C 440.74 339.01 453.51 339.06 466.27 339.00 C 466.30 318.23 466.29 297.46 466.28 276.68 Z" />
</g>
<g id="#f03800ff">
<path fill="#f03800" opacity="1.00" d=" M 66.22 119.67 C 101.69 119.62 137.16 119.73 172.63 119.61 C 167.38 140.41 162.23 161.23 156.88 182.00 C 121.50 181.98 86.11 181.99 50.72 182.00 C 55.78 161.19 61.35 140.51 66.22 119.67 Z" />
<path fill="#f03800" opacity="1.00" d=" M 205.23 119.63 C 208.92 119.65 212.60 119.66 216.29 119.66 C 242.13 119.59 267.97 119.82 293.80 119.54 C 294.11 140.33 293.62 161.12 294.05 181.90 C 329.02 182.08 363.99 181.92 398.96 181.99 C 409.77 181.96 420.59 182.06 431.40 181.94 C 458.65 182.03 485.89 181.94 513.14 181.99 C 528.76 181.98 544.38 181.98 560.00 181.99 C 560.01 213.54 559.98 245.08 560.01 276.63 C 516.00 276.08 471.97 276.57 427.95 276.47 C 383.27 276.41 338.58 276.52 293.90 276.26 C 293.86 244.85 293.91 213.43 293.88 182.02 C 259.11 181.91 224.35 182.10 189.58 181.93 C 194.67 161.13 199.96 140.38 205.23 119.63 Z" />
<path fill="#f03800" opacity="1.00" d=" M 51.87 276.45 C 75.23 276.45 98.60 276.42 121.96 276.46 C 121.96 297.31 121.94 318.15 121.97 338.99 C 134.84 339.04 147.71 339.07 160.58 338.97 C 163.40 401.50 166.49 464.00 169.51 526.52 C 138.59 526.35 107.67 526.48 76.76 526.45 C 68.31 443.13 60.09 359.79 51.87 276.45 Z" />
<path fill="#f03800" opacity="1.00" d=" M 216.28 276.46 C 242.17 276.48 268.07 276.34 293.96 276.53 C 293.76 359.87 294.01 443.22 293.84 526.57 C 263.00 526.31 232.15 526.45 201.30 526.50 C 198.50 463.98 195.49 401.47 192.40 338.97 C 200.36 339.07 208.32 339.03 216.27 339.01 C 216.30 318.16 216.30 297.31 216.28 276.46 Z" />
</g>
<g id="#cbd7f1ff">
<path fill="#cbd7f1" opacity="1.00" d=" M 172.63 119.61 C 176.60 119.69 180.56 119.67 184.53 119.64 C 191.43 119.60 198.33 119.62 205.23 119.63 C 199.96 140.38 194.67 161.13 189.58 181.93 C 178.68 182.08 167.78 181.95 156.88 182.00 C 162.23 161.23 167.38 140.41 172.63 119.61 Z" />
<path fill="#cbd7f1" opacity="1.00" d=" M 160.58 338.97 C 171.19 338.92 181.80 338.92 192.40 338.97 C 195.49 401.47 198.50 463.98 201.30 526.50 C 190.71 526.42 180.11 526.38 169.51 526.52 C 166.49 464.00 163.40 401.50 160.58 338.97 Z" />
</g>
<g id="#b1bbe8ff">
<path fill="#b1bbe8" opacity="1.00" d=" M 383.56 119.55 C 390.36 119.86 397.17 119.67 403.97 119.68 C 407.89 119.58 411.83 119.87 415.74 119.44 C 421.32 140.17 426.22 161.10 431.40 181.94 C 420.59 182.06 409.77 181.96 398.96 181.99 C 393.79 161.19 388.44 140.42 383.56 119.55 Z" />
<path fill="#b1bbe8" opacity="1.00" d=" M 395.92 339.03 C 406.60 339.03 417.29 339.03 427.98 339.03 C 427.02 347.63 427.27 356.30 426.59 364.92 C 423.98 418.84 421.51 472.78 418.79 526.70 C 408.27 526.25 397.67 526.30 387.14 526.68 C 386.75 519.11 388.11 511.58 387.96 504.01 C 390.73 449.02 393.11 394.02 395.92 339.03 Z" />
</g>
<g id="#ff6c6cff">
<path fill="#ff6c6c" opacity="1.00" d=" M 156.88 182.00 C 167.78 181.95 178.68 182.08 189.58 181.93 C 224.35 182.10 259.11 181.91 293.88 182.02 C 293.91 213.43 293.86 244.85 293.90 276.26 C 338.58 276.52 383.27 276.41 427.95 276.47 C 471.97 276.57 516.00 276.08 560.01 276.63 C 552.22 276.77 544.42 276.65 536.63 276.69 C 513.18 276.61 489.73 276.66 466.28 276.68 C 434.84 276.68 403.40 276.68 371.96 276.68 C 345.96 276.53 319.95 276.85 293.96 276.53 C 268.07 276.34 242.17 276.48 216.28 276.46 C 184.84 276.49 153.40 276.49 121.96 276.46 C 98.60 276.42 75.23 276.45 51.87 276.45 C 43.58 276.43 35.29 276.45 27.00 276.44 C 27.06 245.73 26.88 215.02 27.09 184.32 L 28.10 183.72 C 27.78 183.28 27.14 182.42 26.81 181.99 C 34.78 182.00 42.75 181.99 50.72 182.00 C 86.11 181.99 121.50 181.98 156.88 182.00 Z" />
</g>
</svg>
